<svg width="202" height="60" fill="none" xmlns="http://www.w3.org/2000/svg"><g clip-path="url(#a)"><path d="M60 24a26 26 0 1 0-27 35l-2-7 5 3v4h5v-1l1-7 3-4v1l-2 10-1 1a26 26 0 0 0 18-35Zm-2 4s-1 1-1-1v-2l-3-3c-1-1-6 3-7 5-1 1-2 1-2 3l1 13-9 2-7 2-1-6-3-13-5-2a4 4 0 0 0-4 1 5 5 0 0 0-2 4v1c1 1-1 1-2 1v-4a23 23 0 0 1 4-6h9v-2l20-2v2l8-2a1 1 0 0 1 1 1l2 3 2 3-1 2Z" fill="#FDC305"/><path d="M56 22a118 118 0 0 1 3 4l-1 2-1-1v-2l-3-3c-1-1-6 3-7 5-1 1-2 1-2 3l1 11 5 2s0-7 8-3c0 0 0-10 11-8-4-4-8-8-14-10Zm-10-3L45 3h-1l-2 4H30l-3-4-1 4v14l20-2Z" fill="#F06351"/><path d="m45 47 1-4-9 2-7 2 1 5 5 3 6-4 3-4Z" fill="#E55645"/><path d="m32 16 1 1 1 1h-2 2l-2-2Zm8 0-2 2h2s0-1 0 0h-1l1-2Zm-4 6 1-1v-1l-2 1v1h1Z" fill="#000"/><path d="m36 24-1 1-2-1h-1s1 4 3 4c2 1 2 0 2-1l-1-3Z" fill="#F06351"/><path d="M34 25a4 4 0 0 1-2-2 3 3 0 0 0 2 2 2 2 0 0 0 2-1v-1 1h1l2-1-2 2a2 2 0 0 1-1-1 2 2 0 0 1-2 1Z" fill="#000"/><path d="M36 38a4 4 0 1 0 0-7 4 4 0 0 0 0 7Z" fill="#FDC305"/><path d="m41 32-3 1 1-6-7 10 3-1-1 5 7-9Zm-7 3 4-5-1 4 2-1-4 6 1-4h-2Zm-2-1a1 1 0 1 0 0-2 1 1 0 0 0 0 2Zm7 4a1 1 0 1 0 0-2 1 1 0 0 0 0 2Zm1-2v-1 1Z" fill="#111"/><path d="m46 21-5 5-6 5-1-1-5-4-3-3h-2c2 4 7 7 12 9l5-4 6-6 1-2-2 1Z" fill="#F06351"/><path d="m65 4-8 9-1-2 8-11 1 4Zm-2 13 5-4-1-4-5 5 1 3Zm-3 32 6 4 3-3-7-3-2 2ZM2 6l3-3 9 9-1 2L2 6Zm5 10-4-3-3 4 5 2 2-3Zm7 37-5 3 3 3 4-4-2-2Z" fill="#FDC305"/><path d="m26 28-5-2a4 4 0 0 0-4 1 5 5 0 0 0-2 4v1c1 1-1 1-2 1v-4l2-3-15 9h8c5 1 5 5 5 5l6-1c2 0 2 2 2 2l1 4 2-3 5-1-3-13Z" fill="#F06351"/><path d="m86 42-2-5v-8l2-5 4-2c3 0 4 1 5 2l1 4v2h-4v-4a2 2 0 0 0-2-1 1 1 0 0 0-1 1v14a1 1 0 0 0 1 1 1 1 0 0 0 2-1v-4h4v2l-1 4c-1 1-2 2-5 2l-4-2Zm16-19h5l4 21h-4l-1-5h-3l-1 5h-4l4-21Zm4 13-2-8-1 8h3Zm8-10h-4v-3h11v3h-3v18h-4V26Z" fill="#111"/><path d="M130 23h8v2h-5v7h4v2h-4v7h5v3h-8V23Zm10 0h2l6 14V23h3v21h-2l-6-15v15h-3V23Zm14 0h8v2h-5v7h4v2h-4v7h5v3h-8V23Zm10 0h5c1-1 3 0 4 1l2 4c0 3-1 4-3 5l3 11h-3l-2-10h-3v10h-3V23Zm4 9 3-1a4 4 0 0 0 1-3v-2a2 2 0 0 0-1-1h-4v7h1Zm11 10-2-5v-7l1-4 2-3 3-1a5 5 0 0 1 4 2c1 1 2 3 1 5h-2v-3l-1-1h-4l-1 2v10l1 3a3 3 0 0 0 4 0l1-3v-2h-3v-2h6v11h-2v-3a4 4 0 0 1-4 3 5 5 0 0 1-4-2Zm16-6-5-13h3l3 10 3-10h3l-4 13v8h-3v-8Z" fill="#444"/></g><defs><clipPath id="a"><path fill="#fff" d="M0 0h202v60H0z"/></clipPath></defs></svg>