<svg width="174" height="52" fill="none" xmlns="http://www.w3.org/2000/svg"><g clip-path="url(#a)"><path d="M52 21A22 22 0 0 0 34 7a22 22 0 0 0-20 9 22 22 0 0 0 14 35l-1-6 4 3v4l4-1 2-7 2-3-2 9-1 1a22 22 0 0 0 17-21l-1-9Zm-2 3h-1v-2l-2-3-7 4-1 3v11l-7 2-6 2-1-5-3-12-4-1a3 3 0 0 0-4 0 4 4 0 0 0-1 4v1h-1l-1-2a20 20 0 0 1 4-6h7v-2l18-1v1l7-1 2 3 2 3-1 1Z" fill="#FDC305"/><path d="M49 19a104 104 0 0 1 2 4l-1 1h-1v-2l-2-3-7 4-1 3v10l5 1s0-6 7-3c0 0 0-8 9-6-3-4-7-7-11-9Zm-9-2L38 2s0-1 0 0l-1 4H26l-3-3-1 3v12l18-1Z" fill="#F06351"/><path d="M39 41v-4l-7 2-6 2v4h1l4 3 6-4 2-3Z" fill="#E55645"/><path d="m28 14 1 1v1l-1-1h1l-1-1Zm6 0-1 1v1l1-1h-1l1-1Zm-3 5h1v-1h-2v1h1Z" fill="#000"/><path d="M31 21h-3v-1s0 4 2 5l2-1-1-3Z" fill="#F06351"/><path d="M30 22a3 3 0 0 1-2-2 3 3 0 0 0 2 1 2 2 0 0 0 1-1l1 1 1-1h1l-2 1a1 1 0 0 1-1 0 2 2 0 0 1-1 1Z" fill="#000"/><path d="M31 33c2 0 3-1 3-3s-1-3-3-3-3 1-3 3 1 3 3 3Z" fill="#FDC305"/><path d="m36 27-3 2 1-5-7 8 3-1-1 5 7-9Zm-7 4 4-5-1 3h2l-4 4 1-3-2 1Zm-1-2 1-1-1-1-1 1 1 1Zm6 4v-1h-1l1 1Zm0-2h1l-1-1v1Z" fill="#111"/><path d="m40 18-5 5-4 4-2-1-4-3-3-3h-2c3 3 6 6 11 7l4-2 5-5 1-2h-1Zm-18 6-4-1a3 3 0 0 0-4 0 4 4 0 0 0-1 4v1h-1l-1-2 2-4-13 8 7 1c5 0 4 4 4 4l5-1c2 0 2 2 2 2l1 3 2-2 4-1-3-12Z" fill="#F06351"/><path d="M74 36c-1-1-2-2-1-4v-7c-1-1 0-3 1-4l4-2 4 2 1 4v1h-4v-4a1 1 0 0 0-1 0 1 1 0 0 0-1 1l-1 2v8l1 2a1 1 0 0 0 1 0 1 1 0 0 0 1 0v-4h4v2l-1 4-4 1c-2 0-3 0-4-2Zm14-16h4l3 18h-3l-1-4h-3v4h-4l4-18Zm3 12-1-8-1 8h2Zm7-10h-3v-2h9v2h-2v16h-4V22Z" fill="#111"/><path d="M112 20h7v2h-5v6h4v1h-4v7h5v2h-7V20Zm9 0h1l6 12V20h2v18h-2l-5-13v13h-2V20Zm12 0h6v2h-4v6h4v1h-4v7h5v2h-7V20Zm9 0h3l4 1 2 3c0 3-1 4-3 5l3 9h-3l-2-9h-2v9h-2V20Zm3 7h2a3 3 0 0 0 1-3v-1a2 2 0 0 0-1-1l-2-1h-1v6h1Zm9 9-1-4V22l2-2 3-1a4 4 0 0 1 3 2l1 4h-2v-2l-1-1-1-1-2 1-1 1v9l1 3a2 2 0 0 0 4 0v-4h-2v-2h4v9h-1v-2a3 3 0 0 1-4 2 4 4 0 0 1-3-2Zm14-5-4-11h2l3 8 3-8h2l-4 11v7h-2v-7Z" fill="#444"/></g><defs><clipPath id="a"><path fill="#fff" d="M0 0h174v52H0z"/></clipPath></defs></svg>